<svg xmlns="http://www.w3.org/2000/svg" width="32" height="20.946" viewBox="0 0 32 20.946"><path d="M30.018,15.15a.955.955,0,0,0-.065-.073l-1.121-1.082c.93-.211,1.931-.99,1.931-1.79,0-.931-1.293-1.262-2.4-1.262-1.153,0-1.287.79-1.3,1.349L24.172,9.5a4.083,4.083,0,0,0-2.536-1.04H10.364A4.085,4.085,0,0,0,7.828,9.5L4.936,12.292c-.015-.558-.149-1.349-1.3-1.349-1.1,0-2.4.33-2.4,1.262,0,.8,1,1.579,1.932,1.79L2.049,15.077c-.025.024-.043.048-.065.073A6.282,6.282,0,0,0,0,19.458v4.1A3.741,3.741,0,0,0,1.027,26.13v1.59a1.715,1.715,0,0,0,1.736,1.688h2.1A1.714,1.714,0,0,0,6.6,27.721v-.407H25.4v.407a1.713,1.713,0,0,0,1.736,1.688h2.1a1.714,1.714,0,0,0,1.735-1.688V26.13A3.738,3.738,0,0,0,32,23.558v-4.1A6.275,6.275,0,0,0,30.018,15.15ZM8.891,10.742a2.893,2.893,0,0,1,1.473-.6H21.638a2.893,2.893,0,0,1,1.473.6L26.9,14.419H5.1ZM1.3,18.837a1.8,1.8,0,0,1,1.766-1.829c.975,0,4.162,1.871,4.162,2.88s-3.187.776-4.162.776A1.8,1.8,0,0,1,1.3,18.837Zm5.3,6.679H5.925l-2,0a3.794,3.794,0,0,1-1.221-.59,1.731,1.731,0,0,1-.33-.336,1.314,1.314,0,0,1-.185-.339,1.543,1.543,0,0,1,.265-1.346H5.863l2.27,2.606Zm14.3,0H11.1a1.85,1.85,0,0,1-1.85-1.849H22.747A1.85,1.85,0,0,1,20.9,25.517Zm.43-3.111H10.675c-1.11,0-2.012-1.369-2.012-3.057H23.338C23.338,21.038,22.437,22.406,21.327,22.406Zm8.482,1.85a1.323,1.323,0,0,1-.186.338,1.7,1.7,0,0,1-.33.336,3.76,3.76,0,0,1-1.221.59l-2,0H23.867l2.272-2.606h3.4A1.54,1.54,0,0,1,29.809,24.256Zm-.875-3.592c-.974,0-4.161.233-4.161-.776s3.187-2.88,4.161-2.88a1.829,1.829,0,0,1,0,3.656Z" transform="translate(0 -8.463)" fill="#626273"></path></svg>