<svg xmlns="http://www.w3.org/2000/svg" width="96" height="30.914" viewBox="0 0 96 30.914"><path d="M251.005,57.462a7.178,7.178,0,1,1-7.177,7.178,7.178,7.178,0,0,1,7.177-7.178Zm-6.673-12.727-.479,6.258c1.406-.075,2.764-.139,4.025-.181a1,1,0,0,0,.895-.483,10.556,10.556,0,0,0,.866-1.808c.117-.343.092-.5-.2-.908-.4-.541-3.03-1.916-5.1-2.878Zm-1.546,6.315.589-6.748a13.465,13.465,0,0,0-1.406-.552,18.539,18.539,0,0,0-4.952-.8l-5.487-.066a.913.913,0,0,0-.766.361c-.442,1.144-.545,2.7-1.12,7.409-.158,1.289-.073.94,1.356.922,3.52-.042,7.8-.312,11.787-.531Zm19.336,16.766c1.457-.112,3.107-.249,4.41-.473a4.885,4.885,0,0,0,2.156-.711c1.055-.98.934-4.035.915-5.6,0-.382-.97-.383-.993-.78-.141-2.415-.31-5.088-.573-7.569-.316-2.979-6.424-3.088-10.166-4.273-2.661-.843-4.854-2.649-8.273-4.161-3.765-1.665-7.051-3.192-11.009-3.192-6.433,0-15.994-.767-21.982,1.137-5.735,1.822-10.96,5.116-16.4,7.684a157.3,157.3,0,0,0-20.56,3.689,5.138,5.138,0,0,0-3.759,2.817,32.992,32.992,0,0,0-1.4,3.5c-.529.043-.549-.091-.716.218a3.582,3.582,0,0,0-.116,1.288,12.662,12.662,0,0,0,.237,3.869,3.171,3.171,0,0,0,1.07,1.919,2.471,2.471,0,0,0,1.405.533l2.442.079c1.458-.268,1.183-.455,1.09-2.31q-.021-.418-.02-.844a9.332,9.332,0,1,1,18.663,0c0,.524-.01,1.038-.046,1.539-.219,3.126-.51,2.587,2.325,2.728l39.153-.043c2.084-.287,1.966-.026,1.747-2.644-.043-.514-.057-1.043-.057-1.581a9.332,9.332,0,0,1,18.664,0c0,.442-.012.882-.046,1.316-.167,2.143.433,1.967,1.832,1.86Zm-51.851-15.5a7.526,7.526,0,0,0,.337-1.622c.075-1.245-2.2-1.338-3.613-1.246a42.1,42.1,0,0,1,10.437-5.463,32.383,32.383,0,0,1,7.155-1.03l3.093-.066c.558-.006.632.254.468.692-.551,1.477-.771,4.668-1.1,6.811-.16,1.034-.4,1.279-1.462,1.288-4.174.035-15.364.836-15.313.636Zm-21.053,5.145a7.178,7.178,0,1,1-7.178,7.178,7.178,7.178,0,0,1,7.178-7.178Z" transform="translate(-173.618 -40.904)" fill="#fff" fill-rule="evenodd"></path></svg>