<svg xmlns="http://www.w3.org/2000/svg" width="96" height="33.323" viewBox="0 0 96 33.323"><path d="M444.968,69.88a5.29,5.29,0,0,0,2.327-.767c1.138-1.057.793-4.356.776-6.046,0-.412-1.048-.415-1.072-.842-.151-2.606-1.275-7.394-1.559-10.072a4.226,4.226,0,0,0-2.216-3.317c-2.008-1.241-7.758-4.626-9.94-5.541-1.441-.6-1.09-.749-2.636-.972-7.682-1.1-24.479-2.4-32.006-.013A75.136,75.136,0,0,0,381.473,50.6c-9.887,1.7-17.956,3.152-22.758,4.444a5.677,5.677,0,0,0-4.023,3.111c-.779,1.509-1.149,2.392-1.506,3.249-.855.071-1.062.86-1.047,1.926a15.641,15.641,0,0,0,.335,4.527,2.788,2.788,0,0,0,2.741,1.973l2.407.078c1.169-.221,1.527-.158,1.427-1.72-.034-.536-.043-1.087-.043-1.653a10.072,10.072,0,1,1,20.145,0c0,.778,0,1.535-.052,2.262-.174,2.48-.946,2.222,1.436,2.345l40.476-.045c1.731-.211,2.195,0,1.955-2.353a22,22,0,0,1-.088-2.21,10.073,10.073,0,0,1,20.145,0c0,.5,0,.989-.017,1.463-.064,1.911-.486,2.3,1.961,1.878ZM412.712,51.45c.62-5.08.7-6.552,1.174-7.786a1.186,1.186,0,0,1,.862-.6c3.657.175,7.727.113,11.268.934,1.258.352,3.833,3.282,4.478,4.164.249.34,2.1,2.489,1.8,2.932a1.082,1.082,0,0,1-.965.521c-5.507.183-11.655.765-17.155.832-1.542.019-1.633.4-1.462-.995ZM391.8,53.238a8.109,8.109,0,0,0,.364-1.751c.081-1.343-2.87-1.444-4.393-1.345a48.937,48.937,0,0,1,11.758-5.9c3.237-1.084,7.593-1.109,11.062-1.184.6-.006.582.247.506.747-.242,1.594-.833,5.038-1.19,7.351-.172,1.116-.436,1.381-1.577,1.39-4.505.038-16.584.9-16.528.687Zm41.149,5.554a7.748,7.748,0,1,1-7.748,7.748,7.747,7.747,0,0,1,7.748-7.748Zm-63.872,0a7.748,7.748,0,1,1-7.748,7.748,7.748,7.748,0,0,1,7.748-7.748Z" transform="translate(-352.133 -40.963)" fill="#f7f7fc" fill-rule="evenodd"></path></svg>