<svg xmlns="http://www.w3.org/2000/svg" width="32" height="24" viewBox="0 0 32 24"><path d="M20.667,24a.667.667,0,0,1-.6-.368l-3.149-6.3h-.255a.667.667,0,0,1-.555-.3l-2.667-4a.666.666,0,0,1-.064-.617l.44-1.1A3.9,3.9,0,0,0,13.445,7.7a.667.667,0,0,1-.042-.668l.142-.284L9.142,4H.667a.666.666,0,0,1-.6-.965L1.4.368A.667.667,0,0,1,2,0h8a.659.659,0,0,1,.342.1l5.033,3.02a3.31,3.31,0,0,1,2.94-1.782h1.247a3.312,3.312,0,0,1,2.357.977L26.6,6.994a4.769,4.769,0,0,1,.893,5.5l-.085.171L31.93,21.7a.667.667,0,0,1-.3.895L28.965,23.93c-.006,0-.012,0-.018,0a.656.656,0,0,1-.28.066Zm-2.393-6.944,2.8,5.611h6.4l-4.431-7.2-1.11.37A6.736,6.736,0,0,1,24,20.667a.667.667,0,0,1-1.333,0,5.41,5.41,0,0,0-1.75-3.977l-.411-.377ZM18,10a2.667,2.667,0,1,0,2.667-2.667A2.67,2.67,0,0,0,18,10ZM0,16.667c0-2.171,2.525-5.39,2.813-5.75a.69.69,0,0,1,1.042,0c.288.36,2.813,3.579,2.813,5.75a3.333,3.333,0,1,1-6.667,0Z" fill="#626273"></path></svg>