<svg xmlns="http://www.w3.org/2000/svg" width="17.631" height="12.473" viewBox="0 0 17.631 12.473"><path id="home-icon-mileage" d="M72.875,194.9A9.011,9.011,0,0,0,64,204.1a7.569,7.569,0,0,0,.73,3.275H80.9a7.582,7.582,0,0,0,.73-3.275,8.836,8.836,0,0,0-8.753-9.2ZM65.46,206.24a6.816,6.816,0,0,1-.244-2.268,7.7,7.7,0,0,1,7.659-7.939,7.983,7.983,0,0,1,7.781,8.065,14.327,14.327,0,0,1-.244,2.268H65.46Zm6.686-9.2h.972v1.764h-.972Zm-5.956,6.174h1.823v1.007H66.189Zm11.67,0h1.7v1.007h-1.7Zm-8.875-5.039.852-.5.852,1.513-.73.5S68.984,198.177,68.984,198.177Zm6.566,1.511-.972-.5.852-1.513.852.5Zm-8.511,1.135.486-.881,1.46.881-.364.881Zm10.091.881-.608-.881,1.46-.881.486.881Zm-4.011,3.277-1.7-1.513L73,202.081h-.364a1.64,1.64,0,1,0,1.579,1.638v-.378l-1.092,1.638Zm-.852-1.764,4.984-4.158-4.133,5.165Z" transform="translate(-64 -194.9)" fill="#727272"></path></svg>