<svg xmlns="http://www.w3.org/2000/svg" width="14.56" height="15.53" viewBox="0 0 14.56 15.53"><g id="home-icon-fuel" transform="translate(0)"><path id="Path_34" data-name="Path 34" d="M112,80.485a.485.485,0,0,1,.485-.485h4.853a.485.485,0,0,1,.485.485v3.882a.485.485,0,0,1-.485.485h-4.853a.485.485,0,0,1-.485-.485Zm.971,3.4h3.883V80.971h-3.883Z" transform="translate(-106.176 -77.573)" fill="#727272"></path><path id="Path_35" data-name="Path 35" d="M16.257,3.441l1.935-.971a.484.484,0,1,1,.43.868l-.737.368a.49.49,0,0,1,.045.168,1.561,1.561,0,0,1-.959,1.366v5.913a.485.485,0,0,0,.971,0V7.273A2.577,2.577,0,0,1,19.883,4.9V1.934A1.918,1.918,0,0,1,21.8,0h5.824a1.957,1.957,0,0,1,1.964,1.934V12.8l.7.351a.485.485,0,0,1,.268.434v1.456a.512.512,0,0,1-.508.492H19.374a.472.472,0,0,1-.462-.492V13.582a.485.485,0,0,1,.268-.434l.7-.351V5.906a1.571,1.571,0,0,0-.971,1.366v3.882a1.456,1.456,0,0,1-2.912,0V3.875A.475.475,0,0,1,16.257,3.441Zm3.626,11.118h9.706v-.678l-.7-.351a.485.485,0,0,1-.268-.434V1.934a.986.986,0,0,0-.994-.963H21.8a.946.946,0,0,0-.947.964V13.1a.485.485,0,0,1-.268.434l-.7.351Z" transform="translate(-16)" fill="#727272"></path></g></svg>