<svg xmlns="http://www.w3.org/2000/svg" width="23.333" height="16.998" viewBox="0 0 23.333 16.998"><g id="home-icon-car" transform="translate(0 -58.625)"><path id="Path_20" data-name="Path 20" d="M22.828,63.667H21.117a.505.505,0,0,0-.35.14l-.365.35a18.208,18.208,0,0,0-2.692-4.292,3.369,3.369,0,0,0-2.617-1.24H8.241a3.368,3.368,0,0,0-2.617,1.24,17.791,17.791,0,0,0-2.7,4.287l-.36-.345a.506.506,0,0,0-.35-.14H.505A.505.505,0,0,0,0,64.173v1.17a.505.505,0,0,0,.474.5l1.759.111a11.216,11.216,0,0,0-.473,3.566,4.554,4.554,0,0,0,.775,2.949V75.2a.423.423,0,0,0,.423.423H4.9a.423.423,0,0,0,.423-.423V73.506H18.006V75.2a.423.423,0,0,0,.423.423h1.947A.423.423,0,0,0,20.8,75.2V72.473a4.555,4.555,0,0,0,.775-2.949,11.216,11.216,0,0,0-.473-3.566l1.759-.111a.505.505,0,0,0,.474-.5v-1.17A.505.505,0,0,0,22.828,63.667Zm-15.76-2.62a1.509,1.509,0,0,1,1.172-.556h6.851a1.51,1.51,0,0,1,1.172.556,17.613,17.613,0,0,1,2,2.97l-13.215,0A17.725,17.725,0,0,1,7.069,61.047ZM5.629,71.436c-.969,0-1.755-.317-1.755-1.084s.285-1.39,1.254-1.39,2.255.623,2.255,1.39S6.6,71.436,5.629,71.436Zm7.878-.16H9.828A1.007,1.007,0,0,1,8.822,70.27a.282.282,0,0,1,.282-.282H14.23a.282.282,0,0,1,.282.282A1.007,1.007,0,0,1,13.506,71.276Zm4.2.16c-.969,0-1.755-.317-1.755-1.084s1.286-1.39,2.255-1.39,1.254.623,1.254,1.39S18.674,71.436,17.705,71.436Z" fill="#fff"></path></g></svg>