<svg xmlns="http://www.w3.org/2000/svg" width="19.758" height="24.5" viewBox="0 0 19.758 24.5"><g id="listing-details-icon-transmission" transform="translate(0)"><path id="Path_42" data-name="Path 42" d="M18.573,10.274H11.064v-.79h.619L13.64,6.222A4.108,4.108,0,0,0,10.117,0H9.641A4.109,4.109,0,0,0,6.117,6.223L8.075,9.484h.619v.79H1.185A1.187,1.187,0,0,0,0,11.46V23.315A1.187,1.187,0,0,0,1.185,24.5H18.573a1.187,1.187,0,0,0,1.185-1.185V11.46A1.187,1.187,0,0,0,18.573,10.274ZM11.855,23.71H10.274V19.758h2.371V17.387h1.581V14.226H11.064V12.645h6.323V16.6H15.806v2.371H14.226v2.371H11.855Zm1.581-19.6a3.316,3.316,0,0,1-.1.782,3.558,3.558,0,0,1-2.272-3.31V.93A3.323,3.323,0,0,1,13.435,4.108ZM8.694.93v.651a3.558,3.558,0,0,1-2.272,3.31A3.29,3.29,0,0,1,8.694.93ZM6.8,5.816c-.036-.06-.063-.124-.095-.186a4.351,4.351,0,0,0,2.783-4.05V.8c.052,0,.1-.008.157-.008h.476c.053,0,.1.006.157.008v.782A4.35,4.35,0,0,0,13.058,5.63c-.032.062-.059.126-.095.186L11.236,8.694H8.522Zm3.479,3.668v4.742h-.79V9.484ZM8.694,14.226H7.113V12.645H8.694ZM.79,23.315V11.46a.4.4,0,0,1,.4-.4H8.694v.79H6.323v3.161h7.113V16.6H11.855v2.371H9.484V23.71h-8.3A.4.4,0,0,1,.79,23.315Zm18.177,0a.4.4,0,0,1-.4.4H12.645V22.129h2.371V19.758H16.6V17.387h1.581V11.855H11.064v-.79h7.508a.4.4,0,0,1,.4.4Zm0,0" fill="#919191"></path><path id="Path_43" data-name="Path 43" d="M32,243.161h3.952V240H32Zm.79-2.371h2.371v1.581H32.79Zm0,0" transform="translate(-30.419 -228.145)" fill="#919191"></path></g></svg>