<svg xmlns="http://www.w3.org/2000/svg" width="19.151" height="20.428" viewBox="0 0 19.151 20.428"><g id="listing-details-icon-fuel" transform="translate(-0.001)"><path id="Path_50" data-name="Path 50" d="M119.661,80.638a.638.638,0,0,0-.638-.638h-6.384a.638.638,0,0,0-.638.638v5.107a.638.638,0,0,0,.638.638h6.384a.638.638,0,0,0,.638-.638Zm-1.277,4.469h-5.107v-3.83h5.107Z" transform="translate(-108.17 -76.808)" fill="#919191"></path><path id="Path_51" data-name="Path 51" d="M34.814,4.527,32.268,3.25A.637.637,0,1,0,31.7,4.392l.97.484a.644.644,0,0,0-.059.221,2.053,2.053,0,0,0,1.262,1.8v7.778a.638.638,0,1,1-1.277,0V9.567a3.39,3.39,0,0,0-2.554-3.127V2.544A2.523,2.523,0,0,0,27.521,0H19.861a2.575,2.575,0,0,0-2.584,2.544V16.833l-.924.462a.638.638,0,0,0-.353.571v1.915a.673.673,0,0,0,.669.648H30.713a.621.621,0,0,0,.608-.648V17.866a.638.638,0,0,0-.353-.571l-.924-.462V7.769a2.067,2.067,0,0,1,1.277,1.8v5.107a1.915,1.915,0,1,0,3.83,0V5.1A.625.625,0,0,0,34.814,4.527ZM30.045,19.152H17.277V18.26L18.2,17.8a.638.638,0,0,0,.353-.571V2.544a1.3,1.3,0,0,1,1.307-1.267h7.661a1.244,1.244,0,0,1,1.246,1.267V17.227a.638.638,0,0,0,.353.571l.924.462Z" transform="translate(-16)" fill="#919191"></path></g></svg>