<svg xmlns="http://www.w3.org/2000/svg" width="96" height="28.887" viewBox="0 0 96 28.887"><path d="M276.49,164.779c1.461-.123,3.111-.232,4.414-.43a4.666,4.666,0,0,0,2.174-.717c1.064-.988.942-4.07.924-5.649,0-.385-.979-.386-1-.787-.141-2.435-.208-3.28-.474-5.782a2.946,2.946,0,0,0-2.327-2.306c-3.925-1.224-13.324-2.364-17.771-2.549l-1.41-.053-1.383-.3c-.921.144-.838-.026-1.041.946-.177.847-.617,1.895-1.724,1.947-3.856.178-7.711.22-11.4.348-.39.013-.877-.219-.869-.663l.03-1.679a.343.343,0,0,0-.326-.362l-1.284-.115a.394.394,0,0,0-.381.362l-.267,1.465c-.18.994-.348,1.277-1.346,1.319l-15.968.679c-.192.008.3-.893.341-1.636.075-1.255-3.471-1.48-4.895-1.388a69.78,69.78,0,0,1,10.483-6c.461-.225.736-.236.435-.709l-.3-.471c-.221-.347-.5-.317-.859-.149a167.688,167.688,0,0,0-15.354,7.892,158.9,158.9,0,0,0-20.736,3.72c-2.175.539-3.227.293-3.9,1.587a33.452,33.452,0,0,0-1.408,3.534c-.532.044-.553.2-.721.516a6.743,6.743,0,0,0-.124,1.891c.016.668.064,1.67.122,2.318.12,1.358.348,2.118,1.038,2.633a3,3,0,0,0,1.582.493l2.107.069c1.38-.194,1.627-.05,1.483-1.857-.033-.411-.047-.833-.047-1.268a9.412,9.412,0,1,1,18.824,0,14.454,14.454,0,0,1-.141,2.132c-.371,2.5,0,2.08,1.95,2.08h39.708c1.3-.267,1.764-.263,1.551-2.077a18.348,18.348,0,0,1-.1-2.135,9.411,9.411,0,1,1,18.823,0c0,.353.008.7.01,1.046.014,1.789.1,2.235,1.561,2.111Zm-10.983-10.4a7.24,7.24,0,1,1-7.239,7.24,7.24,7.24,0,0,1,7.239-7.24Zm-61.787,0a7.24,7.24,0,1,1-7.239,7.24,7.24,7.24,0,0,1,7.239-7.24Z" transform="translate(-188.016 -139.974)" fill="#fff" fill-rule="evenodd"></path></svg>