<svg xmlns="http://www.w3.org/2000/svg" width="96" height="35.417" viewBox="0 0 96 35.417"><path d="M364.006,267.647a27.07,27.07,0,0,0,.509-6.436c0-.791-.165-1.311-.944-1.473-.474-.1-.954-.2-.966-.4-.141-2.433-.311-4.231-.577-6.731-.16-1.548-2.871-2.914-4.5-4.386-1.447-1.306-4.444-3.53-5.71-4.567-1.066-.873.526-1.856-.465-2.272-1.586-.723-4.561-1.017-7.76-1.117-7.853-.245-18.5-.34-26.169.223a34.688,34.688,0,0,0-7.536,1.232c-5.778,1.837-10.728,6.368-16.209,8.955-6.634.7-13.312,1.313-20.032,2.979a4.188,4.188,0,0,0-3.314,2.681c-.728,1.409-.44,2.731-.774,3.531-.532.043-.552-.092-.721.219a3.618,3.618,0,0,0-.117,1.3c-.177,2.45-.726,6.1,1.317,7.626a3.013,3.013,0,0,0,.32.17h3.081c1.54,0,1.438-.294,1.605-1.912a9.4,9.4,0,0,1,9.354-8.43,9.558,9.558,0,0,1,9.3,8.016c.313,2.007-.171,2.367,1.884,2.367h40.263c1.437,0,1.344-.14,1.435-1.582a9.4,9.4,0,0,1,18.76-.144c.161,1.717-.027,1.726,1.586,1.726h3.907c1.22,0,2.076-.273,2.482-1.572Zm-17.349-6.626a7.233,7.233,0,1,1-7.234,7.233,7.233,7.233,0,0,1,7.234-7.233Zm-62.262,0a7.233,7.233,0,1,1-7.234,7.233,7.233,7.233,0,0,1,7.234-7.233Zm19.422-8.784a7.571,7.571,0,0,0,.34-1.634c.075-1.255-2.219-1.349-3.641-1.256a40.954,40.954,0,0,1,10.2-5.82,38.752,38.752,0,0,1,7.527-.722l3.116-.066c.563-.007.637.254.472.7-.555,1.488-.777,4.7-1.111,6.862-.161,1.042-.407,1.289-1.473,1.3-4.206.035-15.482.842-15.431.641Zm33.662-1.276a24.941,24.941,0,0,0-1.2-6.8c-3.942-1.724-6.893-1.374-11.041-1.423a.917.917,0,0,0-.772.364c-.445,1.152-.55,2.723-1.129,7.466-.158,1.3-.074.947,1.366.929,3.548-.043,8.754-.315,12.775-.536Zm.661-6.364a31.95,31.95,0,0,1,1.309,6.306c1.417-.075.993-.14,2.264-.182,1.844-.061,1.787-.8.62-2.393a12.626,12.626,0,0,0-4.194-3.731Zm9.208-.867,2.411.158c2.374,1.951,4.749,3.675,7.122,5.556,1.262,1,.039.9-.965.717-3.719-.684-6.28-3.576-8.568-6.431Z" transform="translate(-268.517 -240.071)" fill="#fff" fill-rule="evenodd"></path></svg>