<svg xmlns="http://www.w3.org/2000/svg" width="62.031" height="60" viewBox="0 0 62.031 60"><defs><style>
      .cls-1 {
        fill: #ffb400;
        fill-rule: evenodd;
      }
    </style></defs><path id="quote" class="cls-1" d="M959.986,2516.98c-17.126,0-31.009,12.27-31.009,27.41a25.861,25.861,0,0,0,9.33,19.58c-1.261,7.3-9.4,10.25-8.839,12.26,6.874,2.85,20.643-3.42,24-5.05a34.837,34.837,0,0,0,6.513.62c17.127,0,31.013-12.27,31.013-27.41S977.113,2516.98,959.986,2516.98Zm-2.2,28.55c0,7.45-3.294,11.64-9.786,12.43h-0.038a0.343,0.343,0,0,1-.2-0.07,0.31,0.31,0,0,1-.1-0.23v-3.79a0.3,0.3,0,0,1,.155-0.26,8.355,8.355,0,0,0,4.514-7.77h-4.366a0.309,0.309,0,0,1-.3-0.31V2536a0.3,0.3,0,0,1,.3-0.3h9.521a0.3,0.3,0,0,1,.3.3v9.53Zm16.858,0c0,7.34-2.917,11.06-9.762,12.43h-0.058a0.3,0.3,0,0,1-.3-0.3v-3.79a0.293,0.293,0,0,1,.155-0.26,8.355,8.355,0,0,0,4.514-7.77h-4.367a0.309,0.309,0,0,1-.3-0.31V2536a0.3,0.3,0,0,1,.3-0.3h9.517a0.3,0.3,0,0,1,.3.3v9.53Z" transform="translate(-928.969 -2516.97)"></path></svg>