<svg xmlns="http://www.w3.org/2000/svg" xmlns:xlink="http://www.w3.org/1999/xlink" id="Layer_1" x="0px" y="0px" viewBox="0 0 31.9 30" style="enable-background:new 0 0 31.9 30;" xml:space="preserve">
<style type="text/css">
	.st0{fill:#FF5B59;}
</style>
<g>
	<path class="st0" d="M4.3,15.4H0.5c-0.3,0-0.5,0.2-0.5,0.5v13.7C0,29.8,0.2,30,0.5,30h3.8c0.3,0,0.5-0.2,0.5-0.5v-4.3   c0-0.3-0.2-0.5-0.5-0.5c-0.3,0-0.5,0.2-0.5,0.5v3.9H0.9V16.3h2.9v7.3c0,0.3,0.2,0.5,0.5,0.5c0.3,0,0.5-0.2,0.5-0.5v-7.8   C4.8,15.6,4.5,15.4,4.3,15.4z"></path>
	<path class="st0" d="M11.1,19.8H7.2c-0.3,0-0.5,0.2-0.5,0.5v9.3C6.8,29.8,7,30,7.2,30h3.8c0.3,0,0.5-0.2,0.5-0.5v-9.3   C11.5,20,11.3,19.8,11.1,19.8z M10.6,29.1H7.7v-8.4h2.9V29.1z"></path>
	<path class="st0" d="M17.8,12.4H14c-0.3,0-0.5,0.2-0.5,0.5v16.6c0,0.3,0.2,0.5,0.5,0.5h3.8c0.3,0,0.5-0.2,0.5-0.5V12.9   C18.3,12.6,18.1,12.4,17.8,12.4z M17.4,29.1h-2.9V13.4h2.9V29.1z"></path>
	<path class="st0" d="M24.6,14.6h-3.8c-0.3,0-0.5,0.2-0.5,0.5v14.4c0,0.3,0.2,0.5,0.5,0.5h3.8c0.3,0,0.5-0.2,0.5-0.5V15.1   C25.1,14.8,24.9,14.6,24.6,14.6z M24.1,29.1h-2.9V15.6h2.9V29.1z"></path>
	<path class="st0" d="M31.4,8h-3.8c-0.3,0-0.5,0.2-0.5,0.5v6.2c0,0.3,0.2,0.5,0.5,0.5S28,15,28,14.7V9h2.9v20.1H28V16.3   c0-0.3-0.2-0.5-0.5-0.5s-0.5,0.2-0.5,0.5v13.2c0,0.3,0.2,0.5,0.5,0.5h3.8c0.3,0,0.5-0.2,0.5-0.5v-21C31.9,8.2,31.6,8,31.4,8z"></path>
	<path class="st0" d="M28.1,4.3c0.4,0.3,0.8,0.4,1.3,0.4c1.3,0,2.4-1.1,2.4-2.4c0-1.3-1.1-2.4-2.4-2.4c-1.3,0-2.4,1.1-2.4,2.4   c0,0.5,0.1,0.9,0.4,1.3L24,7c-0.4-0.3-0.8-0.4-1.3-0.4c-0.9,0-1.7,0.5-2.1,1.2l-2.3-0.8c0-0.1,0-0.2,0-0.3c0-1.3-1.1-2.4-2.4-2.4   c-1.3,0-2.4,1.1-2.4,2.4c0,0.5,0.2,1,0.5,1.4l-3.6,3.9c-0.4-0.2-0.8-0.3-1.2-0.3c-0.7,0-1.3,0.3-1.7,0.7l-2.9-1.9   c0.1-0.3,0.2-0.6,0.2-0.9c0-1.3-1.1-2.4-2.4-2.4C1.1,7.3,0,8.4,0,9.7c0,1.3,1.1,2.4,2.4,2.4c0.7,0,1.3-0.3,1.7-0.7l2.9,1.9   c-0.1,0.3-0.2,0.6-0.2,0.9c0,1.3,1.1,2.4,2.4,2.4c1.3,0,2.4-1.1,2.4-2.4c0-0.5-0.2-1-0.5-1.4l3.6-3.9c0.4,0.2,0.8,0.3,1.2,0.3   c0.9,0,1.7-0.5,2.1-1.2l2.3,0.8c0,0.1,0,0.2,0,0.3c0,1.3,1.1,2.4,2.4,2.4c1.3,0,2.4-1.1,2.4-2.4c0-0.5-0.1-0.9-0.4-1.3L28.1,4.3z    M2.4,11.2c-0.8,0-1.4-0.6-1.4-1.4s0.6-1.4,1.4-1.4s1.4,0.6,1.4,1.4S3.2,11.2,2.4,11.2z M9.2,15.6c-0.8,0-1.4-0.6-1.4-1.4   s0.6-1.4,1.4-1.4s1.4,0.6,1.4,1.4S9.9,15.6,9.2,15.6z M15.9,8.2c-0.8,0-1.4-0.6-1.4-1.4s0.6-1.4,1.4-1.4s1.4,0.6,1.4,1.4   S16.7,8.2,15.9,8.2z M29.5,0.9c0.8,0,1.4,0.6,1.4,1.4s-0.6,1.4-1.4,1.4S28,3.2,28,2.4S28.7,0.9,29.5,0.9z M22.7,10.4   c-0.8,0-1.4-0.6-1.4-1.4s0.6-1.4,1.4-1.4s1.4,0.6,1.4,1.4S23.5,10.4,22.7,10.4z"></path>
</g>
</svg>